<?xml version="1.0" encoding="UTF-8"?>
<svg xmlns="http://www.w3.org/2000/svg" width="1600" height="1200" viewBox="0 0 1600 1200" role="img">
  <title>Fragrance trading — ADEPT visual placeholder</title>
  <rect width="1600" height="1200" fill="#E8E1D6"/>
  <rect x="48" y="48" width="1504" height="1104" fill="none" stroke="#17252B" stroke-opacity="0.06" stroke-width="1"/>
  
  <rect x="420" y="320" width="70" height="200" rx="8" fill="#ffffff" fill-opacity="0.6" stroke="#17252B" stroke-opacity="0.12"/>
  <rect x="430" y="390" width="50" height="110" fill="#B49A73" fill-opacity="0.5"/>
  <rect x="438" y="296" width="34" height="24" fill="#17252B" fill-opacity="0.4"/>

  <rect x="560" y="360" width="70" height="200" rx="8" fill="#ffffff" fill-opacity="0.6" stroke="#17252B" stroke-opacity="0.12"/>
  <rect x="570" y="430" width="50" height="110" fill="#B49A73" fill-opacity="0.5"/>
  <rect x="578" y="336" width="34" height="24" fill="#17252B" fill-opacity="0.4"/>

  <rect x="700" y="300" width="70" height="200" rx="8" fill="#ffffff" fill-opacity="0.6" stroke="#17252B" stroke-opacity="0.12"/>
  <rect x="710" y="370" width="50" height="110" fill="#B49A73" fill-opacity="0.5"/>
  <rect x="718" y="276" width="34" height="24" fill="#17252B" fill-opacity="0.4"/>
<rect x="920" y="380" width="18" height="140" rx="2" fill="#ffffff" fill-opacity="0.85" stroke="#17252B" stroke-opacity="0.1" transform="rotate(-12 920 380)"/>
<rect x="980" y="400" width="18" height="140" rx="2" fill="#ffffff" fill-opacity="0.85" stroke="#17252B" stroke-opacity="0.1" transform="rotate(-12 980 400)"/>
<rect x="1040" y="360" width="18" height="140" rx="2" fill="#ffffff" fill-opacity="0.85" stroke="#17252B" stroke-opacity="0.1" transform="rotate(-12 1040 360)"/>
  <text x="80" y="1120" font-family="Georgia, serif" font-size="28" fill="#17252B" fill-opacity="0.4">Fragrance trading</text>
  <text x="80" y="1155" font-family="system-ui,sans-serif" font-size="16" fill="#17252B" fill-opacity="0.28">Placeholder — replace with approved ADEPT photography</text>
</svg>