<?xml version="1.0" encoding="UTF-8"?>
<svg xmlns="http://www.w3.org/2000/svg" width="1600" height="1200" viewBox="0 0 1600 1200" role="img">
  <title>Website Development â€” ADEPT interface preview</title>
  <rect width="1600" height="1200" fill="#ECE7DE"/>
  <rect x="48" y="48" width="1504" height="1104" fill="none" stroke="#17252B" stroke-opacity="0.06" stroke-width="1"/>
  
    <rect x="300" y="260" width="1000" height="620" rx="12" fill="#ffffff" fill-opacity="0.8" stroke="#17252B" stroke-opacity="0.1"/>
    <rect x="300" y="260" width="1000" height="64" fill="#17252B" fill-opacity="0.9"/>
    <circle cx="340" cy="292" r="8" fill="#B49A73" fill-opacity="0.7"/>
    <circle cx="370" cy="292" r="8" fill="#ffffff" fill-opacity="0.25"/>
    <circle cx="400" cy="292" r="8" fill="#ffffff" fill-opacity="0.25"/>
    <rect x="360" y="380" width="380" height="420" fill="#ECE7DE"/>
    <rect x="400" y="430" width="220" height="24" fill="#17252B" fill-opacity="0.2"/>
    <rect x="400" y="480" width="300" height="12" fill="#17252B" fill-opacity="0.1"/>
    <rect x="400" y="510" width="260" height="12" fill="#17252B" fill-opacity="0.08"/>
    <rect x="400" y="560" width="140" height="40" fill="#B49A73" fill-opacity="0.5"/>
    <rect x="780" y="380" width="440" height="200" fill="#F4F1EB" stroke="#17252B" stroke-opacity="0.06"/>
    <rect x="780" y="620" width="200" height="180" fill="#ECE7DE"/>
    <rect x="1020" y="620" width="200" height="180" fill="#ECE7DE"/>
    
  <text x="80" y="1120" font-family="Georgia, serif" font-size="28" fill="#17252B" fill-opacity="0.4">Website Development</text>
  <text x="80" y="1155" font-family="system-ui,sans-serif" font-size="16" fill="#17252B" fill-opacity="0.28">Placeholder â€” replace with approved ADEPT imagery</text>
</svg>